<?xml version="1.0" encoding="UTF-8" standalone="no"?>
<svg width="1984.25px" height="1984.25px" viewBox="0 0 1984.25 1984.25"
 xmlns="http://www.w3.org/2000/svg" xmlns:xlink="http://www.w3.org/1999/xlink" version="1.2" baseProfile="tiny">
<title>finals-ranges (2)</title>
<desc>Generated by MuseScore 3.5.0</desc>
<polyline class="StaffLines" fill="none" stroke="#000000" stroke-width="2.00" stroke-linejoin="bevel" points="14.1732,316.743 1970.08,316.743"/>
<polyline class="StaffLines" fill="none" stroke="#000000" stroke-width="2.00" stroke-linejoin="bevel" points="14.1732,341.745 1970.08,341.745"/>
<polyline class="StaffLines" fill="none" stroke="#000000" stroke-width="2.00" stroke-linejoin="bevel" points="14.1732,366.746 1970.08,366.746"/>
<polyline class="StaffLines" fill="none" stroke="#000000" stroke-width="2.00" stroke-linejoin="bevel" points="14.1732,391.748 1970.08,391.748"/>
<polyline class="StaffLines" fill="none" stroke="#000000" stroke-width="2.00" stroke-linejoin="bevel" points="14.1732,416.75 1970.08,416.75"/>
<polyline class="StaffLines" fill="none" stroke="#000000" stroke-width="2.00" stroke-linejoin="bevel" points="14.1732,686.419 1970.08,686.419"/>
<polyline class="StaffLines" fill="none" stroke="#000000" stroke-width="2.00" stroke-linejoin="bevel" points="14.1732,711.42 1970.08,711.42"/>
<polyline class="StaffLines" fill="none" stroke="#000000" stroke-width="2.00" stroke-linejoin="bevel" points="14.1732,736.422 1970.08,736.422"/>
<polyline class="StaffLines" fill="none" stroke="#000000" stroke-width="2.00" stroke-linejoin="bevel" points="14.1732,761.423 1970.08,761.423"/>
<polyline class="StaffLines" fill="none" stroke="#000000" stroke-width="2.00" stroke-linejoin="bevel" points="14.1732,786.425 1970.08,786.425"/>
<polyline class="StaffLines" fill="none" stroke="#000000" stroke-width="2.00" stroke-linejoin="bevel" points="14.1732,1056.09 1970.08,1056.09"/>
<polyline class="StaffLines" fill="none" stroke="#000000" stroke-width="2.00" stroke-linejoin="bevel" points="14.1732,1081.1 1970.08,1081.1"/>
<polyline class="StaffLines" fill="none" stroke="#000000" stroke-width="2.00" stroke-linejoin="bevel" points="14.1732,1106.1 1970.08,1106.1"/>
<polyline class="StaffLines" fill="none" stroke="#000000" stroke-width="2.00" stroke-linejoin="bevel" points="14.1732,1131.1 1970.08,1131.1"/>
<polyline class="StaffLines" fill="none" stroke="#000000" stroke-width="2.00" stroke-linejoin="bevel" points="14.1732,1156.1 1970.08,1156.1"/>
<polyline class="StaffLines" fill="none" stroke="#000000" stroke-width="2.00" stroke-linejoin="bevel" points="14.1732,1425.77 1970.08,1425.77"/>
<polyline class="StaffLines" fill="none" stroke="#000000" stroke-width="2.00" stroke-linejoin="bevel" points="14.1732,1450.77 1970.08,1450.77"/>
<polyline class="StaffLines" fill="none" stroke="#000000" stroke-width="2.00" stroke-linejoin="bevel" points="14.1732,1475.77 1970.08,1475.77"/>
<polyline class="StaffLines" fill="none" stroke="#000000" stroke-width="2.00" stroke-linejoin="bevel" points="14.1732,1500.77 1970.08,1500.77"/>
<polyline class="StaffLines" fill="none" stroke="#000000" stroke-width="2.00" stroke-linejoin="bevel" points="14.1732,1525.78 1970.08,1525.78"/>
<path class="MeasureNumber" d="M6.76761,1006.97 L6.64761,1006.17 C9.68761,1005.64 12.2676,1004.34 14.3876,1002.29 C16.5076,1000.24 17.9809,997.584 18.8076,994.331 C16.8343,995.851 14.8343,996.611 12.8076,996.611 C10.6476,996.611 8.90761,995.864 7.58761,994.371 C6.26761,992.878 5.60761,990.918 5.60761,988.491 C5.60761,985.798 6.40094,983.551 7.98761,981.751 C9.57428,979.951 11.5543,979.051 13.9276,979.051 C16.5143,979.051 18.6343,980.104 20.2876,982.211 C21.9409,984.318 22.7676,987.024 22.7676,990.331 C22.7676,991.398 22.6743,992.491 22.4876,993.611 C22.3009,994.731 21.8676,996.058 21.1876,997.591 C20.5076,999.124 19.6209,1000.5 18.5276,1001.71 C17.4343,1002.92 15.8743,1004.02 13.8476,1005.01 C11.8209,1006 9.46094,1006.65 6.76761,1006.97 M14.2476,994.891 C14.7543,994.891 15.3276,994.818 15.9676,994.671 C16.6076,994.524 17.2543,994.204 17.9076,993.711 C18.5609,993.218 18.8876,992.611 18.8876,991.891 L18.8876,990.331 C18.8876,983.558 17.1276,980.171 13.6076,980.171 C12.7809,980.171 12.0743,980.391 11.4876,980.831 C10.9009,981.271 10.4543,981.851 10.1476,982.571 C9.84094,983.291 9.62094,984.024 9.48761,984.771 C9.35428,985.518 9.28761,986.304 9.28761,987.131 C9.28761,989.504 9.73428,991.391 10.6276,992.791 C11.5209,994.191 12.7276,994.891 14.2476,994.891"/>
<path class="MeasureNumber" d="M-3.05551,1356.69 C-2.92218,1356.07 -2.78885,1355.54 -2.65551,1355.09 C-2.52218,1354.63 -2.23551,1353.97 -1.79551,1353.11 C-1.35551,1352.24 -0.862181,1351.52 -0.315514,1350.95 C0.231153,1350.37 0.991153,1349.86 1.96449,1349.41 C2.93782,1348.95 4.03782,1348.73 5.26449,1348.73 C7.34449,1348.73 9.09782,1349.41 10.5245,1350.77 C11.9512,1352.13 12.6645,1353.81 12.6645,1355.81 C12.6645,1358.82 10.9578,1362.11 7.54449,1365.69 L0.824486,1372.73 L10.3845,1372.73 C11.2912,1372.73 11.9645,1372.57 12.4045,1372.27 C12.8445,1371.96 13.4378,1371.23 14.1845,1370.09 L14.7045,1370.29 L12.5045,1375.77 L-3.09551,1375.77 L-3.09551,1375.29 L4.02449,1367.73 C7.49115,1364.05 9.22449,1360.58 9.22449,1357.33 C9.22449,1355.65 8.70449,1354.29 7.66449,1353.25 C6.62449,1352.21 5.26449,1351.69 3.58449,1351.69 C2.19782,1351.69 1.08449,1352.07 0.244486,1352.83 C-0.595514,1353.59 -1.41551,1354.94 -2.21551,1356.89 L-3.05551,1356.69 M23.0245,1352.05 C22.5445,1352.05 21.5845,1352.34 20.1445,1352.93 L20.1445,1352.37 L27.3445,1348.73 L27.6645,1348.81 L27.6645,1372.81 C27.6645,1373.77 27.9045,1374.39 28.3845,1374.69 C28.8645,1374.98 29.8912,1375.14 31.4645,1375.17 L31.4645,1375.77 L20.4245,1375.77 L20.4245,1375.17 C21.9178,1375.11 22.9245,1374.89 23.4445,1374.51 C23.9645,1374.12 24.2245,1373.3 24.2245,1372.05 L24.2245,1353.93 C24.2245,1352.67 23.8245,1352.05 23.0245,1352.05"/>
<polyline class="BarLine" fill="none" stroke="#000000" stroke-dasharray="16.001,8.0005" stroke-dashoffset="0" stroke-width="4.00" stroke-linejoin="bevel" points="384.234,685.419 384.234,787.425"/>
<polyline class="BarLine" fill="none" stroke="#000000" stroke-dasharray="16.001,8.0005" stroke-dashoffset="0" stroke-width="4.00" stroke-linejoin="bevel" points="1139.11,685.419 1139.11,787.425"/>
<polyline class="BarLine" fill="none" stroke="#000000" stroke-width="4.00" stroke-linejoin="bevel" points="398.227,1055.09 398.227,1157.1"/>
<polyline class="BarLine" fill="none" stroke="#000000" stroke-width="4.00" stroke-linejoin="bevel" points="540.941,1055.09 540.941,1157.1"/>
<polyline class="BarLine" fill="none" stroke="#000000" stroke-width="4.00" stroke-linejoin="bevel" points="683.655,1055.09 683.655,1157.1"/>
<polyline class="BarLine" fill="none" stroke="#000000" stroke-width="4.00" stroke-linejoin="bevel" points="826.368,1055.09 826.368,1157.1"/>
<polyline class="BarLine" fill="none" stroke="#000000" stroke-width="4.00" stroke-linejoin="bevel" points="969.082,1055.09 969.082,1157.1"/>
<polyline class="BarLine" fill="none" stroke="#000000" stroke-width="4.00" stroke-linejoin="bevel" points="1111.8,1055.09 1111.8,1157.1"/>
<polyline class="BarLine" fill="none" stroke="#000000" stroke-width="4.00" stroke-linejoin="bevel" points="1254.51,1055.09 1254.51,1157.1"/>
<polyline class="BarLine" fill="none" stroke="#000000" stroke-width="4.00" stroke-linejoin="bevel" points="1397.22,1055.09 1397.22,1157.1"/>
<polyline class="BarLine" fill="none" stroke="#000000" stroke-width="4.00" stroke-linejoin="bevel" points="1539.94,1055.09 1539.94,1157.1"/>
<polyline class="BarLine" fill="none" stroke="#000000" stroke-width="4.00" stroke-linejoin="bevel" points="1682.65,1055.09 1682.65,1157.1"/>
<polyline class="BarLine" fill="none" stroke="#000000" stroke-width="4.00" stroke-linejoin="bevel" points="1825.36,1055.09 1825.36,1157.1"/>
<polyline class="BarLine" fill="none" stroke="#000000" stroke-width="4.00" stroke-linejoin="bevel" points="1968.08,1055.09 1968.08,1157.1"/>
<polyline class="BarLine" fill="none" stroke="#000000" stroke-width="4.00" stroke-linejoin="bevel" points="242.882,1424.77 242.882,1526.78"/>
<polyline class="BarLine" fill="none" stroke="#000000" stroke-width="4.00" stroke-linejoin="bevel" points="386.649,1424.77 386.649,1526.78"/>
<polyline class="BarLine" fill="none" stroke="#000000" stroke-width="4.00" stroke-linejoin="bevel" points="530.415,1424.77 530.415,1526.78"/>
<polyline class="BarLine" fill="none" stroke="#000000" stroke-width="4.00" stroke-linejoin="bevel" points="674.181,1424.77 674.181,1526.78"/>
<polyline class="BarLine" fill="none" stroke="#000000" stroke-width="4.00" stroke-linejoin="bevel" points="817.948,1424.77 817.948,1526.78"/>
<polyline class="BarLine" fill="none" stroke="#000000" stroke-width="4.00" stroke-linejoin="bevel" points="961.714,1424.77 961.714,1526.78"/>
<polyline class="BarLine" fill="none" stroke="#000000" stroke-width="4.00" stroke-linejoin="bevel" points="1105.48,1424.77 1105.48,1526.78"/>
<polyline class="BarLine" fill="none" stroke="#000000" stroke-width="4.00" stroke-linejoin="bevel" points="1249.25,1424.77 1249.25,1526.78"/>
<polyline class="BarLine" fill="none" stroke="#000000" stroke-width="4.00" stroke-linejoin="bevel" points="1393.01,1424.77 1393.01,1526.78"/>
<polyline class="BarLine" fill="none" stroke="#000000" stroke-width="4.00" stroke-linejoin="bevel" points="1536.78,1424.77 1536.78,1526.78"/>
<polyline class="BarLine" fill="none" stroke="#000000" stroke-width="4.00" stroke-linejoin="bevel" points="1680.55,1424.77 1680.55,1526.78"/>
<polyline class="BarLine" fill="none" stroke="#000000" stroke-width="4.00" stroke-linejoin="bevel" points="1824.31,1424.77 1824.31,1526.78"/>
<polyline class="BarLine" fill="none" stroke="#000000" stroke-width="4.00" stroke-linejoin="bevel" points="1968.08,1424.77 1968.08,1526.78"/>
<polyline class="LedgerLine" fill="none" stroke="#000000" stroke-width="4.00" stroke-linecap="square" stroke-linejoin="bevel" points="416.236,811.427 464.153,811.427"/>
<polyline class="LedgerLine" fill="none" stroke="#000000" stroke-width="4.00" stroke-linecap="square" stroke-linejoin="bevel" points="1226.62,836.428 1279.53,836.428"/>
<polyline class="LedgerLine" fill="none" stroke="#000000" stroke-width="4.00" stroke-linecap="square" stroke-linejoin="bevel" points="1226.62,811.427 1279.53,811.427"/>
<polyline class="LedgerLine" fill="none" stroke="#000000" stroke-width="4.00" stroke-linecap="square" stroke-linejoin="bevel" points="161.62,1181.1 209.537,1181.1"/>
<polyline class="Stem" fill="none" stroke="#000000" stroke-width="3.25" stroke-linecap="round" stroke-linejoin="bevel" points="200.412,1176.41 200.412,1093.6"/>
<polyline class="Stem" fill="none" stroke="#000000" stroke-width="3.25" stroke-linecap="round" stroke-linejoin="bevel" points="256.808,1163.91 256.808,1081.1"/>
<polyline class="Stem" fill="none" stroke="#000000" stroke-width="3.25" stroke-linecap="round" stroke-linejoin="bevel" points="313.204,1151.4 313.204,1068.6"/>
<polyline class="Stem" fill="none" stroke="#000000" stroke-width="3.25" stroke-linecap="round" stroke-linejoin="bevel" points="369.6,1138.9 369.6,1056.09"/>
<path class="Note" d="M164.821,422.707 C164.821,421.601 164.398,420.657 163.552,419.875 C162.705,419.029 161.729,418.606 160.622,418.606 C158.669,418.606 154.73,420.559 148.806,424.465 C142.686,428.437 138.942,431.269 137.575,432.961 C136.859,433.873 136.501,434.817 136.501,435.793 C136.501,436.9 136.924,437.844 137.771,438.625 C138.552,439.472 139.528,439.895 140.7,439.895 C142.588,439.895 146.56,437.942 152.614,434.036 C158.604,430.129 162.315,427.297 163.747,425.539 C164.463,424.693 164.821,423.749 164.821,422.707 M159.646,415.481 C165.245,415.481 168.044,417.89 168.044,422.707 C168.044,425.051 167.36,427.786 165.993,430.911 C164.626,433.97 162.803,436.314 160.524,437.942 C155.511,441.327 149.229,443.02 141.677,443.02 C136.078,443.02 133.278,440.611 133.278,435.793 C133.278,433.645 133.962,430.943 135.329,427.688 C136.631,424.563 138.454,422.187 140.798,420.559 C145.811,417.174 152.093,415.481 159.646,415.481"/>
<path class="Note" d="M633.171,410.207 C633.171,409.1 632.748,408.156 631.902,407.375 C631.055,406.528 630.079,406.105 628.972,406.105 C627.019,406.105 623.08,408.058 617.156,411.964 C611.036,415.936 607.292,418.768 605.925,420.461 C605.209,421.372 604.851,422.316 604.851,423.293 C604.851,424.399 605.274,425.343 606.121,426.125 C606.902,426.971 607.878,427.394 609.05,427.394 C610.938,427.394 614.91,425.441 620.964,421.535 C626.954,417.629 630.665,414.796 632.097,413.039 C632.813,412.192 633.171,411.248 633.171,410.207 M627.996,402.98 C633.595,402.98 636.394,405.389 636.394,410.207 C636.394,412.55 635.71,415.285 634.343,418.41 C632.976,421.47 631.153,423.813 628.874,425.441 C623.861,428.826 617.579,430.519 610.027,430.519 C604.428,430.519 601.628,428.11 601.628,423.293 C601.628,421.144 602.312,418.442 603.679,415.187 C604.981,412.062 606.804,409.686 609.148,408.058 C614.161,404.673 620.443,402.98 627.996,402.98"/>
<path class="Note" d="M1101.52,397.706 C1101.52,396.599 1101.1,395.655 1100.25,394.874 C1099.41,394.027 1098.43,393.604 1097.32,393.604 C1095.37,393.604 1091.43,395.557 1085.51,399.464 C1079.39,403.435 1075.64,406.267 1074.28,407.96 C1073.56,408.871 1073.2,409.815 1073.2,410.792 C1073.2,411.899 1073.62,412.843 1074.47,413.624 C1075.25,414.47 1076.23,414.893 1077.4,414.893 C1079.29,414.893 1083.26,412.94 1089.31,409.034 C1095.3,405.128 1099.01,402.296 1100.45,400.538 C1101.16,399.692 1101.52,398.748 1101.52,397.706 M1096.35,390.479 C1101.94,390.479 1104.74,392.888 1104.74,397.706 C1104.74,400.05 1104.06,402.784 1102.69,405.909 C1101.33,408.969 1099.5,411.313 1097.22,412.94 C1092.21,416.326 1085.93,418.018 1078.38,418.018 C1072.78,418.018 1069.98,415.609 1069.98,410.792 C1069.98,408.643 1070.66,405.942 1072.03,402.686 C1073.33,399.561 1075.15,397.185 1077.5,395.557 C1082.51,392.172 1088.79,390.479 1096.35,390.479"/>
<path class="Note" d="M1569.87,385.205 C1569.87,384.098 1569.45,383.154 1568.6,382.373 C1567.76,381.527 1566.78,381.104 1565.67,381.104 C1563.72,381.104 1559.78,383.057 1553.86,386.963 C1547.74,390.934 1543.99,393.766 1542.63,395.459 C1541.91,396.37 1541.55,397.314 1541.55,398.291 C1541.55,399.398 1541.97,400.342 1542.82,401.123 C1543.6,401.969 1544.58,402.393 1545.75,402.393 C1547.64,402.393 1551.61,400.439 1557.66,396.533 C1563.65,392.627 1567.36,389.795 1568.8,388.037 C1569.51,387.191 1569.87,386.247 1569.87,385.205 M1564.7,377.979 C1570.29,377.979 1573.09,380.387 1573.09,385.205 C1573.09,387.549 1572.41,390.283 1571.04,393.408 C1569.68,396.468 1567.85,398.812 1565.57,400.439 C1560.56,403.825 1554.28,405.518 1546.73,405.518 C1541.13,405.518 1538.33,403.109 1538.33,398.291 C1538.33,396.143 1539.01,393.441 1540.38,390.186 C1541.68,387.061 1543.5,384.684 1545.85,383.057 C1550.86,379.671 1557.14,377.979 1564.7,377.979"/>
<path class="Note" d="M189.823,792.383 C189.823,791.276 189.4,790.332 188.553,789.551 C187.707,788.705 186.73,788.281 185.624,788.281 C183.671,788.281 179.732,790.234 173.807,794.141 C167.688,798.112 163.944,800.944 162.577,802.637 C161.861,803.548 161.503,804.492 161.503,805.469 C161.503,806.576 161.926,807.52 162.772,808.301 C163.553,809.147 164.53,809.57 165.702,809.57 C167.59,809.57 171.561,807.617 177.616,803.711 C183.605,799.805 187.316,796.973 188.749,795.215 C189.465,794.369 189.823,793.425 189.823,792.383 M184.647,785.156 C190.246,785.156 193.046,787.565 193.046,792.383 C193.046,794.727 192.362,797.461 190.995,800.586 C189.628,803.646 187.805,805.99 185.526,807.617 C180.513,811.003 174.23,812.695 166.678,812.695 C161.079,812.695 158.28,810.287 158.28,805.469 C158.28,803.32 158.964,800.619 160.331,797.363 C161.633,794.238 163.456,791.862 165.8,790.234 C170.813,786.849 177.095,785.156 184.647,785.156"/>
<path class="Note" d="M445.709,797.657 C448.834,797.657 451.471,798.471 453.62,800.099 C455.638,801.856 456.647,804.07 456.647,806.739 C456.647,811.231 454.336,815.431 449.713,819.337 C445.026,823.243 440.013,825.196 434.674,825.196 C431.549,825.196 428.913,824.382 426.764,822.755 C424.746,820.997 423.737,818.783 423.737,816.114 C423.737,811.622 426.081,807.423 430.768,803.516 C435.325,799.61 440.306,797.657 445.709,797.657"/>
<path class="Note" d="M445.709,710.152 C448.834,710.152 451.471,710.965 453.62,712.593 C455.638,714.351 456.647,716.564 456.647,719.234 C456.647,723.726 454.336,727.925 449.713,731.831 C445.026,735.738 440.013,737.691 434.674,737.691 C431.549,737.691 428.913,736.877 426.764,735.249 C424.746,733.491 423.737,731.278 423.737,728.609 C423.737,724.116 426.081,719.917 430.768,716.011 C435.325,712.105 440.306,710.152 445.709,710.152"/>
<path class="Note" d="M1261.09,822.659 C1264.21,822.659 1266.85,823.472 1269,825.1 C1271.02,826.858 1272.03,829.071 1272.03,831.741 C1272.03,836.233 1269.72,840.432 1265.09,844.338 C1260.41,848.245 1255.39,850.198 1250.05,850.198 C1246.93,850.198 1244.29,849.384 1242.14,847.756 C1240.13,845.999 1239.12,843.785 1239.12,841.116 C1239.12,836.624 1241.46,832.424 1246.15,828.518 C1250.71,824.612 1255.69,822.659 1261.09,822.659"/>
<path class="Note" d="M1261.09,735.153 C1264.21,735.153 1266.85,735.967 1269,737.595 C1271.02,739.352 1272.03,741.566 1272.03,744.235 C1272.03,748.727 1269.72,752.927 1265.09,756.833 C1260.41,760.739 1255.39,762.692 1250.05,762.692 C1246.93,762.692 1244.29,761.878 1242.14,760.251 C1240.13,758.493 1239.12,756.279 1239.12,753.61 C1239.12,749.118 1241.46,744.919 1246.15,741.013 C1250.71,737.106 1255.69,735.153 1261.09,735.153"/>
<path class="Note" d="M191.093,1167.33 C194.218,1167.33 196.855,1168.15 199.003,1169.77 C201.022,1171.53 202.031,1173.75 202.031,1176.41 C202.031,1180.91 199.719,1185.11 195.097,1189.01 C190.41,1192.92 185.397,1194.87 180.058,1194.87 C176.933,1194.87 174.296,1194.06 172.148,1192.43 C170.13,1190.67 169.12,1188.46 169.12,1185.79 C169.12,1181.3 171.464,1177.1 176.152,1173.19 C180.709,1169.29 185.69,1167.33 191.093,1167.33"/>
<path class="Note" d="M247.489,1154.83 C250.614,1154.83 253.251,1155.65 255.4,1157.27 C257.418,1159.03 258.427,1161.24 258.427,1163.91 C258.427,1168.41 256.116,1172.61 251.493,1176.51 C246.806,1180.42 241.793,1182.37 236.454,1182.37 C233.329,1182.37 230.693,1181.56 228.544,1179.93 C226.526,1178.17 225.517,1175.96 225.517,1173.29 C225.517,1168.8 227.861,1164.6 232.548,1160.69 C237.105,1156.78 242.086,1154.83 247.489,1154.83"/>
<path class="Note" d="M303.886,1142.33 C307.011,1142.33 309.647,1143.14 311.796,1144.77 C313.814,1146.53 314.823,1148.74 314.823,1151.41 C314.823,1155.91 312.512,1160.1 307.89,1164.01 C303.202,1167.92 298.189,1169.87 292.851,1169.87 C289.726,1169.87 287.089,1169.06 284.94,1167.43 C282.922,1165.67 281.913,1163.46 281.913,1160.79 C281.913,1156.3 284.257,1152.1 288.944,1148.19 C293.502,1144.28 298.482,1142.33 303.886,1142.33"/>
<path class="Note" d="M360.282,1129.83 C363.407,1129.83 366.044,1130.64 368.192,1132.27 C370.21,1134.03 371.219,1136.24 371.219,1138.91 C371.219,1143.4 368.908,1147.6 364.286,1151.51 C359.598,1155.42 354.585,1157.37 349.247,1157.37 C346.122,1157.37 343.485,1156.56 341.337,1154.93 C339.318,1153.17 338.309,1150.96 338.309,1148.29 C338.309,1143.8 340.653,1139.6 345.341,1135.69 C349.898,1131.78 354.878,1129.83 360.282,1129.83"/>
<path class="Clef" d="M70.8932,366.162 C70.8932,366.162 71.0886,366.162 71.4792,366.162 C71.7396,366.097 71.9675,366.064 72.1628,366.064 C79.4544,366.064 85.444,368.636 90.1315,373.779 C94.819,378.857 97.1628,384.782 97.1628,391.553 C97.1628,399.951 93.6797,406.787 86.7136,412.061 C84.8906,413.493 82.5143,414.665 79.5847,415.576 C79.9102,419.808 80.0729,423.226 80.0729,425.83 C80.0729,426.351 80.0078,428.239 79.8776,431.494 C79.6172,437.549 77.5339,442.79 73.6276,447.217 C69.8516,451.579 65.1641,453.76 59.5651,453.76 C54.2917,453.76 49.7995,451.904 46.0886,448.193 C42.3776,444.417 40.5222,439.86 40.5222,434.521 C40.5222,431.722 41.5964,429.346 43.7448,427.393 C45.9584,425.439 48.53,424.463 51.4597,424.463 C54.0638,424.463 56.2448,425.472 58.0026,427.49 C59.8255,429.378 60.737,431.722 60.737,434.521 C60.737,437.061 59.8255,439.242 58.0026,441.064 C56.1797,442.887 53.9987,443.799 51.4597,443.799 C50.418,443.799 49.4089,443.604 48.4323,443.213 C51.2969,447.445 55.1055,449.561 59.8581,449.561 C64.3503,449.561 68.0287,447.738 70.8932,444.092 C73.888,440.316 75.5156,435.921 75.7761,430.908 C75.9063,427.783 75.9714,425.993 75.9714,425.537 C75.9714,421.891 75.8412,418.896 75.5807,416.553 C72.3255,417.074 69.4284,417.334 66.8893,417.334 C57.8399,417.334 50.125,413.753 43.7448,406.592 C37.4948,399.365 34.3698,390.771 34.3698,380.811 C34.3698,378.727 34.5651,376.611 34.9557,374.463 C35.3464,372.705 35.8347,370.784 36.4206,368.701 C36.7461,367.529 37.625,365.641 39.0573,363.037 C39.5781,362.256 40.1641,361.279 40.8151,360.107 C41.4662,358.936 41.9219,358.154 42.1823,357.764 C42.8334,356.462 44.1029,354.704 45.9909,352.49 C46.5117,351.904 47.0488,351.253 47.6022,350.537 C48.1556,349.821 48.6276,349.235 49.0182,348.779 C49.4089,348.324 49.7018,347.965 49.8972,347.705 C50.0925,347.445 51.5573,345.719 54.2917,342.529 C54.9427,341.878 55.5775,341.178 56.196,340.43 C56.8145,339.681 57.319,339.095 57.7097,338.672 C58.1003,338.249 58.3932,337.939 58.5886,337.744 C56.2448,329.997 54.78,323.812 54.194,319.189 C53.7383,315.479 53.5104,310.4 53.5104,303.955 C53.5104,298.291 54.8125,292.985 57.4167,288.037 C59.9557,282.894 63.5039,278.695 68.0612,275.439 C68.3216,275.244 68.6472,275.146 69.0378,275.146 C69.4935,275.146 69.819,275.244 70.0143,275.439 C73.53,279.671 76.5573,285.173 79.0964,291.943 C81.7005,298.714 83.0026,304.867 83.0026,310.4 C83.0026,316.65 81.5052,322.51 78.5104,327.979 C75.125,333.773 70.763,339.762 65.4245,345.947 C66.7917,350.244 68.6146,356.982 70.8932,366.162 M79.194,411.572 C82.5794,410.335 85.2162,408.219 87.1042,405.225 C89.1875,402.36 90.2292,399.137 90.2292,395.557 C90.2292,390.934 88.6667,386.833 85.5417,383.252 C82.3516,379.541 78.2826,377.458 73.3347,377.002 C76.1341,390.739 78.0873,402.262 79.194,411.572 M41.4011,389.014 C41.4011,395.459 44.0052,401.123 49.2136,406.006 C54.5521,410.758 60.5417,413.135 67.1823,413.135 C69.9167,413.135 72.586,412.939 75.1901,412.549 C74.1485,402.653 72.0977,390.804 69.0378,377.002 C65.3268,377.393 62.3646,378.695 60.1511,380.908 C58.0026,383.187 56.9284,385.758 56.9284,388.623 C56.9284,393.571 59.5651,397.575 64.8386,400.635 C65.2943,401.09 65.5222,401.579 65.5222,402.1 C65.5222,402.62 65.2943,403.109 64.8386,403.564 C64.4479,404.02 63.9597,404.248 63.3737,404.248 C63.3086,404.248 63.0156,404.183 62.4948,404.053 C58.7839,402.034 55.9193,399.43 53.9011,396.24 C52.013,392.855 51.069,389.437 51.069,385.986 C51.069,381.494 52.4688,377.425 55.2682,373.779 C58.1979,370.133 62.0065,367.79 66.694,366.748 C64.8711,359.456 63.3737,353.76 62.2018,349.658 C61.1602,350.83 59.9069,352.246 58.4421,353.906 C56.9772,355.566 56.1146,356.559 55.8542,356.885 C53.5104,359.945 51.7201,362.321 50.4831,364.014 C48.2695,367.074 46.6419,369.71 45.6003,371.924 C44.4935,374.398 43.5169,377.1 42.6706,380.029 C41.8242,382.829 41.4011,385.824 41.4011,389.014 M74.0182,289.697 C69.1354,292.106 65.2943,295.557 62.4948,300.049 C59.6302,304.671 58.1979,309.652 58.1979,314.99 C58.1979,319.678 59.3698,325.993 61.7136,333.936 C66.4011,328.271 69.9167,323.031 72.2604,318.213 C74.7344,313.135 75.9714,307.829 75.9714,302.295 C75.9714,298.128 75.3203,293.929 74.0182,289.697"/>
<path class="Clef" d="M70.8932,735.838 C70.8932,735.838 71.0886,735.838 71.4792,735.838 C71.7396,735.772 71.9675,735.74 72.1628,735.74 C79.4544,735.74 85.444,738.312 90.1315,743.455 C94.819,748.533 97.1628,754.457 97.1628,761.228 C97.1628,769.627 93.6797,776.463 86.7136,781.736 C84.8906,783.168 82.5143,784.34 79.5847,785.252 C79.9102,789.483 80.0729,792.901 80.0729,795.506 C80.0729,796.026 80.0078,797.914 79.8776,801.17 C79.6172,807.224 77.5339,812.465 73.6276,816.892 C69.8516,821.254 65.1641,823.435 59.5651,823.435 C54.2917,823.435 49.7995,821.58 46.0886,817.869 C42.3776,814.093 40.5222,809.535 40.5222,804.197 C40.5222,801.397 41.5964,799.021 43.7448,797.068 C45.9584,795.115 48.53,794.138 51.4597,794.138 C54.0638,794.138 56.2448,795.147 58.0026,797.166 C59.8255,799.054 60.737,801.397 60.737,804.197 C60.737,806.736 59.8255,808.917 58.0026,810.74 C56.1797,812.563 53.9987,813.474 51.4597,813.474 C50.418,813.474 49.4089,813.279 48.4323,812.888 C51.2969,817.12 55.1055,819.236 59.8581,819.236 C64.3503,819.236 68.0287,817.413 70.8932,813.767 C73.888,809.991 75.5156,805.597 75.7761,800.584 C75.9063,797.459 75.9714,795.668 75.9714,795.213 C75.9714,791.567 75.8412,788.572 75.5807,786.228 C72.3255,786.749 69.4284,787.009 66.8893,787.009 C57.8399,787.009 50.125,783.429 43.7448,776.267 C37.4948,769.041 34.3698,760.447 34.3698,750.486 C34.3698,748.403 34.5651,746.287 34.9557,744.138 C35.3464,742.381 35.8347,740.46 36.4206,738.377 C36.7461,737.205 37.625,735.317 39.0573,732.713 C39.5781,731.931 40.1641,730.955 40.8151,729.783 C41.4662,728.611 41.9219,727.83 42.1823,727.439 C42.8334,726.137 44.1029,724.379 45.9909,722.166 C46.5117,721.58 47.0488,720.929 47.6022,720.213 C48.1556,719.496 48.6276,718.91 49.0182,718.455 C49.4089,717.999 49.7018,717.641 49.8972,717.381 C50.0925,717.12 51.5573,715.395 54.2917,712.205 C54.9427,711.554 55.5775,710.854 56.196,710.105 C56.8145,709.356 57.319,708.771 57.7097,708.347 C58.1003,707.924 58.3932,707.615 58.5886,707.42 C56.2448,699.672 54.78,693.487 54.194,688.865 C53.7383,685.154 53.5104,680.076 53.5104,673.631 C53.5104,667.966 54.8125,662.66 57.4167,657.713 C59.9557,652.569 63.5039,648.37 68.0612,645.115 C68.3216,644.92 68.6472,644.822 69.0378,644.822 C69.4935,644.822 69.819,644.92 70.0143,645.115 C73.53,649.347 76.5573,654.848 79.0964,661.619 C81.7005,668.39 83.0026,674.542 83.0026,680.076 C83.0026,686.326 81.5052,692.185 78.5104,697.654 C75.125,703.448 70.763,709.438 65.4245,715.623 C66.7917,719.92 68.6146,726.658 70.8932,735.838 M79.194,781.248 C82.5794,780.011 85.2162,777.895 87.1042,774.9 C89.1875,772.035 90.2292,768.813 90.2292,765.232 C90.2292,760.61 88.6667,756.508 85.5417,752.927 C82.3516,749.216 78.2826,747.133 73.3347,746.677 C76.1341,760.414 78.0873,771.938 79.194,781.248 M41.4011,758.689 C41.4011,765.134 44.0052,770.798 49.2136,775.681 C54.5521,780.434 60.5417,782.81 67.1823,782.81 C69.9167,782.81 72.586,782.615 75.1901,782.224 C74.1485,772.328 72.0977,760.479 69.0378,746.677 C65.3268,747.068 62.3646,748.37 60.1511,750.584 C58.0026,752.862 56.9284,755.434 56.9284,758.298 C56.9284,763.246 59.5651,767.25 64.8386,770.31 C65.2943,770.766 65.5222,771.254 65.5222,771.775 C65.5222,772.296 65.2943,772.784 64.8386,773.24 C64.4479,773.696 63.9597,773.923 63.3737,773.923 C63.3086,773.923 63.0156,773.858 62.4948,773.728 C58.7839,771.71 55.9193,769.106 53.9011,765.916 C52.013,762.53 51.069,759.112 51.069,755.662 C51.069,751.17 52.4688,747.101 55.2682,743.455 C58.1979,739.809 62.0065,737.465 66.694,736.423 C64.8711,729.132 63.3737,723.435 62.2018,719.334 C61.1602,720.506 59.9069,721.922 58.4421,723.582 C56.9772,725.242 56.1146,726.235 55.8542,726.56 C53.5104,729.62 51.7201,731.996 50.4831,733.689 C48.2695,736.749 46.6419,739.386 45.6003,741.599 C44.4935,744.073 43.5169,746.775 42.6706,749.705 C41.8242,752.504 41.4011,755.499 41.4011,758.689 M74.0182,659.373 C69.1354,661.782 65.2943,665.232 62.4948,669.724 C59.6302,674.347 58.1979,679.327 58.1979,684.666 C58.1979,689.353 59.3698,695.668 61.7136,703.611 C66.4011,697.947 69.9167,692.706 72.2604,687.888 C74.7344,682.81 75.9714,677.504 75.9714,671.97 C75.9714,667.804 75.3203,663.604 74.0182,659.373"/>
<path class="Clef" d="M70.8932,1105.51 C70.8932,1105.51 71.0886,1105.51 71.4792,1105.51 C71.7396,1105.45 71.9675,1105.42 72.1628,1105.42 C79.4544,1105.42 85.444,1107.99 90.1315,1113.13 C94.819,1118.21 97.1628,1124.13 97.1628,1130.9 C97.1628,1139.3 93.6797,1146.14 86.7136,1151.41 C84.8906,1152.84 82.5143,1154.02 79.5847,1154.93 C79.9102,1159.16 80.0729,1162.58 80.0729,1165.18 C80.0729,1165.7 80.0078,1167.59 79.8776,1170.85 C79.6172,1176.9 77.5339,1182.14 73.6276,1186.57 C69.8516,1190.93 65.1641,1193.11 59.5651,1193.11 C54.2917,1193.11 49.7995,1191.26 46.0886,1187.54 C42.3776,1183.77 40.5222,1179.21 40.5222,1173.87 C40.5222,1171.07 41.5964,1168.7 43.7448,1166.74 C45.9584,1164.79 48.53,1163.81 51.4597,1163.81 C54.0638,1163.81 56.2448,1164.82 58.0026,1166.84 C59.8255,1168.73 60.737,1171.07 60.737,1173.87 C60.737,1176.41 59.8255,1178.59 58.0026,1180.42 C56.1797,1182.24 53.9987,1183.15 51.4597,1183.15 C50.418,1183.15 49.4089,1182.95 48.4323,1182.56 C51.2969,1186.8 55.1055,1188.91 59.8581,1188.91 C64.3503,1188.91 68.0287,1187.09 70.8932,1183.44 C73.888,1179.67 75.5156,1175.27 75.7761,1170.26 C75.9063,1167.13 75.9714,1165.34 75.9714,1164.89 C75.9714,1161.24 75.8412,1158.25 75.5807,1155.9 C72.3255,1156.42 69.4284,1156.68 66.8893,1156.68 C57.8399,1156.68 50.125,1153.1 43.7448,1145.94 C37.4948,1138.72 34.3698,1130.12 34.3698,1120.16 C34.3698,1118.08 34.5651,1115.96 34.9557,1113.81 C35.3464,1112.06 35.8347,1110.14 36.4206,1108.05 C36.7461,1106.88 37.625,1104.99 39.0573,1102.39 C39.5781,1101.61 40.1641,1100.63 40.8151,1099.46 C41.4662,1098.29 41.9219,1097.51 42.1823,1097.11 C42.8334,1095.81 44.1029,1094.05 45.9909,1091.84 C46.5117,1091.26 47.0488,1090.6 47.6022,1089.89 C48.1556,1089.17 48.6276,1088.59 49.0182,1088.13 C49.4089,1087.67 49.7018,1087.32 49.8972,1087.06 C50.0925,1086.8 51.5573,1085.07 54.2917,1081.88 C54.9427,1081.23 55.5775,1080.53 56.196,1079.78 C56.8145,1079.03 57.319,1078.45 57.7097,1078.02 C58.1003,1077.6 58.3932,1077.29 58.5886,1077.1 C56.2448,1069.35 54.78,1063.16 54.194,1058.54 C53.7383,1054.83 53.5104,1049.75 53.5104,1043.31 C53.5104,1037.64 54.8125,1032.34 57.4167,1027.39 C59.9557,1022.24 63.5039,1018.05 68.0612,1014.79 C68.3216,1014.6 68.6472,1014.5 69.0378,1014.5 C69.4935,1014.5 69.819,1014.6 70.0143,1014.79 C73.53,1019.02 76.5573,1024.52 79.0964,1031.29 C81.7005,1038.07 83.0026,1044.22 83.0026,1049.75 C83.0026,1056 81.5052,1061.86 78.5104,1067.33 C75.125,1073.12 70.763,1079.11 65.4245,1085.3 C66.7917,1089.6 68.6146,1096.33 70.8932,1105.51 M79.194,1150.92 C82.5794,1149.69 85.2162,1147.57 87.1042,1144.58 C89.1875,1141.71 90.2292,1138.49 90.2292,1134.91 C90.2292,1130.29 88.6667,1126.18 85.5417,1122.6 C82.3516,1118.89 78.2826,1116.81 73.3347,1116.35 C76.1341,1130.09 78.0873,1141.61 79.194,1150.92 M41.4011,1128.36 C41.4011,1134.81 44.0052,1140.47 49.2136,1145.36 C54.5521,1150.11 60.5417,1152.49 67.1823,1152.49 C69.9167,1152.49 72.586,1152.29 75.1901,1151.9 C74.1485,1142 72.0977,1130.15 69.0378,1116.35 C65.3268,1116.74 62.3646,1118.05 60.1511,1120.26 C58.0026,1122.54 56.9284,1125.11 56.9284,1127.97 C56.9284,1132.92 59.5651,1136.93 64.8386,1139.99 C65.2943,1140.44 65.5222,1140.93 65.5222,1141.45 C65.5222,1141.97 65.2943,1142.46 64.8386,1142.92 C64.4479,1143.37 63.9597,1143.6 63.3737,1143.6 C63.3086,1143.6 63.0156,1143.53 62.4948,1143.4 C58.7839,1141.39 55.9193,1138.78 53.9011,1135.59 C52.013,1132.21 51.069,1128.79 51.069,1125.34 C51.069,1120.85 52.4688,1116.78 55.2682,1113.13 C58.1979,1109.48 62.0065,1107.14 66.694,1106.1 C64.8711,1098.81 63.3737,1093.11 62.2018,1089.01 C61.1602,1090.18 59.9069,1091.6 58.4421,1093.26 C56.9772,1094.92 56.1146,1095.91 55.8542,1096.24 C53.5104,1099.3 51.7201,1101.67 50.4831,1103.36 C48.2695,1106.42 46.6419,1109.06 45.6003,1111.27 C44.4935,1113.75 43.5169,1116.45 42.6706,1119.38 C41.8242,1122.18 41.4011,1125.17 41.4011,1128.36 M74.0182,1029.05 C69.1354,1031.46 65.2943,1034.91 62.4948,1039.4 C59.6302,1044.02 58.1979,1049 58.1979,1054.34 C58.1979,1059.03 59.3698,1065.34 61.7136,1073.29 C66.4011,1067.62 69.9167,1062.38 72.2604,1057.56 C74.7344,1052.49 75.9714,1047.18 75.9714,1041.65 C75.9714,1037.48 75.3203,1033.28 74.0182,1029.05"/>
<path class="Clef" d="M70.8932,1475.19 C70.8932,1475.19 71.0886,1475.19 71.4792,1475.19 C71.7396,1475.12 71.9675,1475.09 72.1628,1475.09 C79.4544,1475.09 85.444,1477.66 90.1315,1482.81 C94.819,1487.88 97.1628,1493.81 97.1628,1500.58 C97.1628,1508.98 93.6797,1515.81 86.7136,1521.09 C84.8906,1522.52 82.5143,1523.69 79.5847,1524.6 C79.9102,1528.83 80.0729,1532.25 80.0729,1534.86 C80.0729,1535.38 80.0078,1537.27 79.8776,1540.52 C79.6172,1546.58 77.5339,1551.82 73.6276,1556.24 C69.8516,1560.61 65.1641,1562.79 59.5651,1562.79 C54.2917,1562.79 49.7995,1560.93 46.0886,1557.22 C42.3776,1553.44 40.5222,1548.89 40.5222,1543.55 C40.5222,1540.75 41.5964,1538.37 43.7448,1536.42 C45.9584,1534.47 48.53,1533.49 51.4597,1533.49 C54.0638,1533.49 56.2448,1534.5 58.0026,1536.52 C59.8255,1538.4 60.737,1540.75 60.737,1543.55 C60.737,1546.09 59.8255,1548.27 58.0026,1550.09 C56.1797,1551.91 53.9987,1552.83 51.4597,1552.83 C50.418,1552.83 49.4089,1552.63 48.4323,1552.24 C51.2969,1556.47 55.1055,1558.59 59.8581,1558.59 C64.3503,1558.59 68.0287,1556.76 70.8932,1553.12 C73.888,1549.34 75.5156,1544.95 75.7761,1539.93 C75.9063,1536.81 75.9714,1535.02 75.9714,1534.56 C75.9714,1530.92 75.8412,1527.92 75.5807,1525.58 C72.3255,1526.1 69.4284,1526.36 66.8893,1526.36 C57.8399,1526.36 50.125,1522.78 43.7448,1515.62 C37.4948,1508.39 34.3698,1499.8 34.3698,1489.84 C34.3698,1487.75 34.5651,1485.64 34.9557,1483.49 C35.3464,1481.73 35.8347,1479.81 36.4206,1477.73 C36.7461,1476.56 37.625,1474.67 39.0573,1472.06 C39.5781,1471.28 40.1641,1470.31 40.8151,1469.13 C41.4662,1467.96 41.9219,1467.18 42.1823,1466.79 C42.8334,1465.49 44.1029,1463.73 45.9909,1461.52 C46.5117,1460.93 47.0488,1460.28 47.6022,1459.56 C48.1556,1458.85 48.6276,1458.26 49.0182,1457.81 C49.4089,1457.35 49.7018,1456.99 49.8972,1456.73 C50.0925,1456.47 51.5573,1454.75 54.2917,1451.56 C54.9427,1450.9 55.5775,1450.2 56.196,1449.46 C56.8145,1448.71 57.319,1448.12 57.7097,1447.7 C58.1003,1447.28 58.3932,1446.97 58.5886,1446.77 C56.2448,1439.02 54.78,1432.84 54.194,1428.22 C53.7383,1424.5 53.5104,1419.43 53.5104,1412.98 C53.5104,1407.32 54.8125,1402.01 57.4167,1397.06 C59.9557,1391.92 63.5039,1387.72 68.0612,1384.47 C68.3216,1384.27 68.6472,1384.17 69.0378,1384.17 C69.4935,1384.17 69.819,1384.27 70.0143,1384.47 C73.53,1388.7 76.5573,1394.2 79.0964,1400.97 C81.7005,1407.74 83.0026,1413.89 83.0026,1419.43 C83.0026,1425.68 81.5052,1431.54 78.5104,1437 C75.125,1442.8 70.763,1448.79 65.4245,1454.97 C66.7917,1459.27 68.6146,1466.01 70.8932,1475.19 M79.194,1520.6 C82.5794,1519.36 85.2162,1517.25 87.1042,1514.25 C89.1875,1511.39 90.2292,1508.16 90.2292,1504.58 C90.2292,1499.96 88.6667,1495.86 85.5417,1492.28 C82.3516,1488.57 78.2826,1486.48 73.3347,1486.03 C76.1341,1499.77 78.0873,1511.29 79.194,1520.6 M41.4011,1498.04 C41.4011,1504.49 44.0052,1510.15 49.2136,1515.03 C54.5521,1519.78 60.5417,1522.16 67.1823,1522.16 C69.9167,1522.16 72.586,1521.97 75.1901,1521.58 C74.1485,1511.68 72.0977,1499.83 69.0378,1486.03 C65.3268,1486.42 62.3646,1487.72 60.1511,1489.93 C58.0026,1492.21 56.9284,1494.78 56.9284,1497.65 C56.9284,1502.6 59.5651,1506.6 64.8386,1509.66 C65.2943,1510.12 65.5222,1510.61 65.5222,1511.13 C65.5222,1511.65 65.2943,1512.14 64.8386,1512.59 C64.4479,1513.05 63.9597,1513.27 63.3737,1513.27 C63.3086,1513.27 63.0156,1513.21 62.4948,1513.08 C58.7839,1511.06 55.9193,1508.46 53.9011,1505.27 C52.013,1501.88 51.069,1498.46 51.069,1495.01 C51.069,1490.52 52.4688,1486.45 55.2682,1482.81 C58.1979,1479.16 62.0065,1476.82 66.694,1475.77 C64.8711,1468.48 63.3737,1462.79 62.2018,1458.68 C61.1602,1459.86 59.9069,1461.27 58.4421,1462.93 C56.9772,1464.59 56.1146,1465.59 55.8542,1465.91 C53.5104,1468.97 51.7201,1471.35 50.4831,1473.04 C48.2695,1476.1 46.6419,1478.74 45.6003,1480.95 C44.4935,1483.42 43.5169,1486.13 42.6706,1489.06 C41.8242,1491.86 41.4011,1494.85 41.4011,1498.04 M74.0182,1398.72 C69.1354,1401.13 65.2943,1404.58 62.4948,1409.08 C59.6302,1413.7 58.1979,1418.68 58.1979,1424.02 C58.1979,1428.7 59.3698,1435.02 61.7136,1442.96 C66.4011,1437.3 69.9167,1432.06 72.2604,1427.24 C74.7344,1422.16 75.9714,1416.86 75.9714,1411.32 C75.9714,1407.15 75.3203,1402.96 74.0182,1398.72"/>
<path class="Rest" d="M487.356,1096.72 L451.809,1096.72 C451.158,1096.72 450.833,1096.4 450.833,1095.74 L450.833,1082.07 C450.833,1081.42 451.158,1081.1 451.809,1081.1 L487.356,1081.1 C488.007,1081.1 488.333,1081.42 488.333,1082.07 L488.333,1095.74 C488.333,1096.4 488.007,1096.72 487.356,1096.72"/>
<path class="Rest" d="M630.07,1096.72 L594.523,1096.72 C593.872,1096.72 593.547,1096.4 593.547,1095.74 L593.547,1082.07 C593.547,1081.42 593.872,1081.1 594.523,1081.1 L630.07,1081.1 C630.721,1081.1 631.047,1081.42 631.047,1082.07 L631.047,1095.74 C631.047,1096.4 630.721,1096.72 630.07,1096.72"/>
<path class="Rest" d="M772.784,1096.72 L737.237,1096.72 C736.586,1096.72 736.26,1096.4 736.26,1095.74 L736.26,1082.07 C736.26,1081.42 736.586,1081.1 737.237,1081.1 L772.784,1081.1 C773.435,1081.1 773.76,1081.42 773.76,1082.07 L773.76,1095.74 C773.76,1096.4 773.435,1096.72 772.784,1096.72"/>
<path class="Rest" d="M915.498,1096.72 L879.951,1096.72 C879.3,1096.72 878.974,1096.4 878.974,1095.74 L878.974,1082.07 C878.974,1081.42 879.3,1081.1 879.951,1081.1 L915.498,1081.1 C916.149,1081.1 916.474,1081.42 916.474,1082.07 L916.474,1095.74 C916.474,1096.4 916.149,1096.72 915.498,1096.72"/>
<path class="Rest" d="M1058.21,1096.72 L1022.66,1096.72 C1022.01,1096.72 1021.69,1096.4 1021.69,1095.74 L1021.69,1082.07 C1021.69,1081.42 1022.01,1081.1 1022.66,1081.1 L1058.21,1081.1 C1058.86,1081.1 1059.19,1081.42 1059.19,1082.07 L1059.19,1095.74 C1059.19,1096.4 1058.86,1096.72 1058.21,1096.72"/>
<path class="Rest" d="M1200.92,1096.72 L1165.38,1096.72 C1164.73,1096.72 1164.4,1096.4 1164.4,1095.74 L1164.4,1082.07 C1164.4,1081.42 1164.73,1081.1 1165.38,1081.1 L1200.92,1081.1 C1201.58,1081.1 1201.9,1081.42 1201.9,1082.07 L1201.9,1095.74 C1201.9,1096.4 1201.58,1096.72 1200.92,1096.72"/>
<path class="Rest" d="M1343.64,1096.72 L1308.09,1096.72 C1307.44,1096.72 1307.12,1096.4 1307.12,1095.74 L1307.12,1082.07 C1307.12,1081.42 1307.44,1081.1 1308.09,1081.1 L1343.64,1081.1 C1344.29,1081.1 1344.62,1081.42 1344.62,1082.07 L1344.62,1095.74 C1344.62,1096.4 1344.29,1096.72 1343.64,1096.72"/>
<path class="Rest" d="M1486.35,1096.72 L1450.81,1096.72 C1450.15,1096.72 1449.83,1096.4 1449.83,1095.74 L1449.83,1082.07 C1449.83,1081.42 1450.15,1081.1 1450.81,1081.1 L1486.35,1081.1 C1487,1081.1 1487.33,1081.42 1487.33,1082.07 L1487.33,1095.74 C1487.33,1096.4 1487,1096.72 1486.35,1096.72"/>
<path class="Rest" d="M1629.07,1096.72 L1593.52,1096.72 C1592.87,1096.72 1592.54,1096.4 1592.54,1095.74 L1592.54,1082.07 C1592.54,1081.42 1592.87,1081.1 1593.52,1081.1 L1629.07,1081.1 C1629.72,1081.1 1630.04,1081.42 1630.04,1082.07 L1630.04,1095.74 C1630.04,1096.4 1629.72,1096.72 1629.07,1096.72"/>
<path class="Rest" d="M1771.78,1096.72 L1736.23,1096.72 C1735.58,1096.72 1735.26,1096.4 1735.26,1095.74 L1735.26,1082.07 C1735.26,1081.42 1735.58,1081.1 1736.23,1081.1 L1771.78,1081.1 C1772.43,1081.1 1772.76,1081.42 1772.76,1082.07 L1772.76,1095.74 C1772.76,1096.4 1772.43,1096.72 1771.78,1096.72"/>
<path class="Rest" d="M1914.49,1096.72 L1878.95,1096.72 C1878.3,1096.72 1877.97,1096.4 1877.97,1095.74 L1877.97,1082.07 C1877.97,1081.42 1878.3,1081.1 1878.95,1081.1 L1914.49,1081.1 C1915.14,1081.1 1915.47,1081.42 1915.47,1082.07 L1915.47,1095.74 C1915.47,1096.4 1915.14,1096.72 1914.49,1096.72"/>
<path class="Rest" d="M186.771,1466.4 L151.225,1466.4 C150.573,1466.4 150.248,1466.07 150.248,1465.42 L150.248,1451.75 C150.248,1451.1 150.573,1450.77 151.225,1450.77 L186.771,1450.77 C187.422,1450.77 187.748,1451.1 187.748,1451.75 L187.748,1465.42 C187.748,1466.07 187.422,1466.4 186.771,1466.4"/>
<path class="Rest" d="M332.538,1466.4 L296.991,1466.4 C296.34,1466.4 296.014,1466.07 296.014,1465.42 L296.014,1451.75 C296.014,1451.1 296.34,1450.77 296.991,1450.77 L332.538,1450.77 C333.189,1450.77 333.514,1451.1 333.514,1451.75 L333.514,1465.42 C333.514,1466.07 333.189,1466.4 332.538,1466.4"/>
<path class="Rest" d="M476.304,1466.4 L440.757,1466.4 C440.106,1466.4 439.781,1466.07 439.781,1465.42 L439.781,1451.75 C439.781,1451.1 440.106,1450.77 440.757,1450.77 L476.304,1450.77 C476.955,1450.77 477.281,1451.1 477.281,1451.75 L477.281,1465.42 C477.281,1466.07 476.955,1466.4 476.304,1466.4"/>
<path class="Rest" d="M620.07,1466.4 L584.524,1466.4 C583.873,1466.4 583.547,1466.07 583.547,1465.42 L583.547,1451.75 C583.547,1451.1 583.873,1450.77 584.524,1450.77 L620.07,1450.77 C620.722,1450.77 621.047,1451.1 621.047,1451.75 L621.047,1465.42 C621.047,1466.07 620.722,1466.4 620.07,1466.4"/>
<path class="Rest" d="M763.837,1466.4 L728.29,1466.4 C727.639,1466.4 727.313,1466.07 727.313,1465.42 L727.313,1451.75 C727.313,1451.1 727.639,1450.77 728.29,1450.77 L763.837,1450.77 C764.488,1450.77 764.813,1451.1 764.813,1451.75 L764.813,1465.42 C764.813,1466.07 764.488,1466.4 763.837,1466.4"/>
<path class="Rest" d="M907.603,1466.4 L872.056,1466.4 C871.405,1466.4 871.08,1466.07 871.08,1465.42 L871.08,1451.75 C871.08,1451.1 871.405,1450.77 872.056,1450.77 L907.603,1450.77 C908.254,1450.77 908.58,1451.1 908.58,1451.75 L908.58,1465.42 C908.58,1466.07 908.254,1466.4 907.603,1466.4"/>
<path class="Rest" d="M1051.37,1466.4 L1015.82,1466.4 C1015.17,1466.4 1014.85,1466.07 1014.85,1465.42 L1014.85,1451.75 C1014.85,1451.1 1015.17,1450.77 1015.82,1450.77 L1051.37,1450.77 C1052.02,1450.77 1052.35,1451.1 1052.35,1451.75 L1052.35,1465.42 C1052.35,1466.07 1052.02,1466.4 1051.37,1466.4"/>
<path class="Rest" d="M1195.14,1466.4 L1159.59,1466.4 C1158.94,1466.4 1158.61,1466.07 1158.61,1465.42 L1158.61,1451.75 C1158.61,1451.1 1158.94,1450.77 1159.59,1450.77 L1195.14,1450.77 C1195.79,1450.77 1196.11,1451.1 1196.11,1451.75 L1196.11,1465.42 C1196.11,1466.07 1195.79,1466.4 1195.14,1466.4"/>
<path class="Rest" d="M1338.9,1466.4 L1303.36,1466.4 C1302.7,1466.4 1302.38,1466.07 1302.38,1465.42 L1302.38,1451.75 C1302.38,1451.1 1302.7,1450.77 1303.36,1450.77 L1338.9,1450.77 C1339.55,1450.77 1339.88,1451.1 1339.88,1451.75 L1339.88,1465.42 C1339.88,1466.07 1339.55,1466.4 1338.9,1466.4"/>
<path class="Rest" d="M1482.67,1466.4 L1447.12,1466.4 C1446.47,1466.4 1446.14,1466.07 1446.14,1465.42 L1446.14,1451.75 C1446.14,1451.1 1446.47,1450.77 1447.12,1450.77 L1482.67,1450.77 C1483.32,1450.77 1483.64,1451.1 1483.64,1451.75 L1483.64,1465.42 C1483.64,1466.07 1483.32,1466.4 1482.67,1466.4"/>
<path class="Rest" d="M1626.43,1466.4 L1590.89,1466.4 C1590.24,1466.4 1589.91,1466.07 1589.91,1465.42 L1589.91,1451.75 C1589.91,1451.1 1590.24,1450.77 1590.89,1450.77 L1626.43,1450.77 C1627.09,1450.77 1627.41,1451.1 1627.41,1451.75 L1627.41,1465.42 C1627.41,1466.07 1627.09,1466.4 1626.43,1466.4"/>
<path class="Rest" d="M1770.2,1466.4 L1734.65,1466.4 C1734,1466.4 1733.68,1466.07 1733.68,1465.42 L1733.68,1451.75 C1733.68,1451.1 1734,1450.77 1734.65,1450.77 L1770.2,1450.77 C1770.85,1450.77 1771.18,1451.1 1771.18,1451.75 L1771.18,1465.42 C1771.18,1466.07 1770.85,1466.4 1770.2,1466.4"/>
<path class="Rest" d="M1913.97,1466.4 L1878.42,1466.4 C1877.77,1466.4 1877.44,1466.07 1877.44,1465.42 L1877.44,1451.75 C1877.44,1451.1 1877.77,1450.77 1878.42,1450.77 L1913.97,1450.77 C1914.62,1450.77 1914.94,1451.1 1914.94,1451.75 L1914.94,1465.42 C1914.94,1466.07 1914.62,1466.4 1913.97,1466.4"/>
<path class="Page" d="M14.2244,1752.57 C14.3577,1751.96 14.491,1751.43 14.6244,1750.97 C14.7577,1750.52 15.0444,1749.86 15.4844,1748.99 C15.9244,1748.13 16.4177,1747.41 16.9644,1746.83 C17.511,1746.26 18.271,1745.75 19.2444,1745.29 C20.2177,1744.84 21.3177,1744.61 22.5444,1744.61 C24.6244,1744.61 26.3777,1745.29 27.8044,1746.65 C29.231,1748.01 29.9444,1749.69 29.9444,1751.69 C29.9444,1754.71 28.2377,1758 24.8244,1761.57 L18.1044,1768.61 L27.6644,1768.61 C28.571,1768.61 29.2444,1768.46 29.6844,1768.15 C30.1244,1767.85 30.7177,1767.12 31.4644,1765.97 L31.9844,1766.17 L29.7844,1771.65 L14.1844,1771.65 L14.1844,1771.17 L21.3044,1763.61 C24.771,1759.93 26.5044,1756.47 26.5044,1753.21 C26.5044,1751.53 25.9844,1750.17 24.9444,1749.13 C23.9044,1748.09 22.5444,1747.57 20.8644,1747.57 C19.4777,1747.57 18.3644,1747.95 17.5244,1748.71 C16.6844,1749.47 15.8644,1750.83 15.0644,1752.77 L14.2244,1752.57 "/>
</svg>
